<svg width="17" height="17" viewBox="0 0 17 17" fill="none" xmlns="http://www.w3.org/2000/svg">
<path fill-rule="evenodd" clip-rule="evenodd" d="M12.7256 12.2166C15.0771 13.0892 16.2528 13.8285 16.2528 14.4345V16.3616H0V14.4345C0 13.8285 1.17572 13.0892 3.5272 12.2166C4.61072 11.8046 5.34843 11.3864 5.74034 10.9622C6.13226 10.538 6.32821 9.96237 6.32821 9.23519C6.32821 8.96855 6.20142 8.67162 5.94783 8.34439C5.69424 8.01716 5.50981 7.5748 5.39454 7.01729C5.37149 6.87185 5.31962 6.76277 5.23893 6.69006C5.15824 6.61734 5.07755 6.56886 4.99687 6.54462C4.91618 6.52038 4.83549 6.41737 4.7548 6.23557C4.67412 6.05377 4.62225 5.7932 4.59919 5.45385C4.59919 5.25993 4.62801 5.10238 4.68564 4.98118C4.74328 4.85999 4.79515 4.78727 4.84125 4.76303L4.91042 4.69031C4.8182 4.08432 4.74904 3.55106 4.70293 3.09052C4.65683 2.43605 4.89312 1.75736 5.41183 1.05441C5.93054 0.351467 6.83538 0 8.12639 0C9.4174 0 10.328 0.351467 10.8582 1.05441C11.3885 1.75736 11.619 2.43605 11.5498 3.09052L11.3424 4.69031C11.5499 4.78727 11.6536 5.04178 11.6536 5.45385C11.6305 5.7932 11.5787 6.05377 11.498 6.23557C11.4173 6.41737 11.3366 6.52038 11.2559 6.54462C11.1752 6.56886 11.0945 6.61734 11.0139 6.69006C10.9332 6.76277 10.8813 6.87185 10.8582 7.01729C10.766 7.59903 10.5874 8.04746 10.3222 8.36257C10.0571 8.67768 9.92457 8.96855 9.92457 9.23519C9.92457 9.96237 10.1263 10.538 10.5297 10.9622C10.9332 11.3864 11.6651 11.8046 12.7256 12.2166Z" fill="#505050"/>
</svg>
